# xmcd
#
# Track frame offsets:
#	150
#	19490
#	38021
#	63509
#	84937
#	107202
#	135957
#	162803
#	198554
#	217486
#	243446
#
# Disc length: 3363 seconds
#
# Revision: 0
# Processed by: cddbd v1.5.2PL0 Copyright (c) Steve Scherf et al.
# Submitted via: EZCDAudioConverter 2.0.5.1
#
DISCID=990d210b
DTITLE=Ben Granfelt Band - Handmade
DYEAR=2014
DGENRE=
TTITLE0=Going Home
TTITLE1=Turning Point
TTITLE2=Almighty Blues
TTITLE3=Get Up And Go!
TTITLE4=Breath
TTITLE5=Faith, Hope and Love
TTITLE6=Baker Street
TTITLE7=Musicland
TTITLE8=Instrumental Madness
TTITLE9=B.L.U.E.S
TTITLE10=Home Again...
EXTD=
EXTT0=
EXTT1=
EXTT2=
EXTT3=
EXTT4=
EXTT5=
EXTT6=
EXTT7=
EXTT8=
EXTT9=
EXTT10=
PLAYORDER=
